<svg width="52" height="52" viewBox="0 0 52 52" fill="none" xmlns="http://www.w3.org/2000/svg">
<g clip-path="url(#clip0_1659_96)">
<mask id="mask0_1659_96" style="mask-type:luminance" maskUnits="userSpaceOnUse" x="5" y="15" width="43" height="23">
<path d="M5.60449 26.5C5.60449 32.5201 14.9599 37.4004 26.4998 37.4004C38.0398 37.4004 47.3953 32.5201 47.3953 26.5C47.3953 20.48 38.0398 15.5996 26.4998 15.5996C14.9599 15.5996 5.60449 20.48 5.60449 26.5Z" fill="white"/>
</mask>
<g mask="url(#mask0_1659_96)">
<path d="M5.60449 26.5C5.60449 32.5201 14.9599 37.4004 26.4998 37.4004C38.0398 37.4004 47.3953 32.5201 47.3953 26.5C47.3953 20.48 38.0398 15.5996 26.4998 15.5996C14.9599 15.5996 5.60449 20.48 5.60449 26.5Z" fill="url(#paint0_radial_1659_96)"/>
</g>
<mask id="mask1_1659_96" style="mask-type:luminance" maskUnits="userSpaceOnUse" x="4" y="14" width="45" height="25">
<path d="M4.73389 14.3583H48.2659V38.6416H4.73389V14.3583Z" fill="white"/>
</mask>
<g mask="url(#mask1_1659_96)">
<path d="M26.5 36.5908C37.5893 36.5908 46.5792 32.0729 46.5792 26.4997C46.5792 20.9266 37.5893 16.4086 26.5 16.4086C15.4108 16.4086 6.4209 20.9266 6.4209 26.4997C6.4209 32.0729 15.4108 36.5908 26.5 36.5908Z" fill="#777BB3"/>
</g>
<mask id="mask2_1659_96" style="mask-type:luminance" maskUnits="userSpaceOnUse" x="4" y="14" width="45" height="25">
<path d="M4.73389 14.3583H48.2659V38.6416H4.73389V14.3583Z" fill="white"/>
</mask>
<g mask="url(#mask2_1659_96)">
<path d="M16.9571 27.7514C17.8689 27.7514 18.5496 27.5846 18.9803 27.2559C19.4064 26.9305 19.7007 26.3668 19.855 25.5805C19.9988 24.8456 19.944 24.3324 19.6922 24.0555C19.4347 23.7726 18.878 23.6292 18.0376 23.6292H16.5804L15.7726 27.7514H16.9571ZM12.191 32.8291C12.1234 32.8291 12.0591 32.7991 12.0161 32.7473C11.9731 32.6955 11.9556 32.6273 11.9685 32.5614L14.1095 21.6376C14.1302 21.532 14.2235 21.4557 14.332 21.4557H18.9463C20.3964 21.4557 21.4758 21.8462 22.1543 22.6164C22.8363 23.3907 23.047 24.473 22.7803 25.8333C22.6717 26.3874 22.4851 26.9021 22.2254 27.3629C21.9655 27.8242 21.622 28.251 21.2043 28.6318C20.7043 29.0958 20.1384 29.4324 19.5238 29.6304C18.919 29.8258 18.1422 29.9249 17.2151 29.9249H15.3467L14.8131 32.6471C14.7924 32.7528 14.6992 32.8291 14.5906 32.8291H12.191Z" fill="black"/>
<path d="M16.7675 23.8538H18.0378C19.0521 23.8538 19.4044 24.0745 19.5241 24.2061C19.7228 24.4245 19.7603 24.8849 19.6326 25.5377C19.4892 26.2684 19.2233 26.7865 18.8422 27.0775C18.4521 27.3753 17.8179 27.5263 16.9573 27.5263H16.0478L16.7675 23.8538ZM18.9464 21.2306H14.3321C14.1151 21.2306 13.9285 21.3832 13.8871 21.5945L11.7461 32.5183C11.7203 32.6501 11.7552 32.7864 11.8413 32.8901C11.9274 32.9938 12.0558 33.0537 12.1912 33.0537H14.5908C14.8079 33.0537 14.9945 32.9011 15.0359 32.6898L15.5338 30.1495H17.2153C18.1662 30.1495 18.9667 30.0466 19.5944 29.8439C20.2399 29.6359 20.8337 29.2833 21.3594 28.7958C21.7941 28.3992 22.1522 27.954 22.4235 27.4725C22.6949 26.9908 22.8899 26.4536 23.003 25.8759C23.2838 24.4441 23.0557 23.2975 22.3252 22.4683C21.6017 21.647 20.4649 21.2306 18.9464 21.2306ZM15.4977 27.976H16.9573C17.9247 27.976 18.6453 27.7953 19.1188 27.4338C19.5924 27.0722 19.9118 26.4688 20.0777 25.6233C20.2365 24.8114 20.1642 24.2385 19.8608 23.9048C19.557 23.571 18.9494 23.4041 18.0378 23.4041H16.3937L15.4977 27.976ZM18.9464 21.6803C20.3346 21.6803 21.3472 22.0415 21.9837 22.7641C22.6201 23.4867 22.8118 24.4953 22.5579 25.7902C22.4533 26.3236 22.2766 26.8113 22.0277 27.2531C21.7785 27.6952 21.4532 28.0995 21.0511 28.466C20.5719 28.9107 20.0397 29.2276 19.4539 29.4163C18.8682 29.6056 18.1222 29.6998 17.2153 29.6998H15.1599L14.5908 32.604H12.1912L14.3321 21.6803H18.9464Z" fill="white"/>
<path d="M28.2825 29.9248C28.2148 29.9248 28.1506 29.8948 28.1076 29.843C28.0645 29.7912 28.047 29.723 28.0599 29.6571L29.007 24.8237C29.0971 24.3641 29.0748 24.0342 28.9445 23.8948C28.8647 23.8095 28.6249 23.6666 27.9161 23.6666H26.2004L25.0097 29.7428C24.9889 29.8485 24.8956 29.9248 24.7871 29.9248H22.4064C22.3387 29.9248 22.2745 29.8948 22.2315 29.843C22.1884 29.7912 22.1709 29.723 22.1839 29.6571L24.3248 18.7333C24.3455 18.6277 24.4388 18.5514 24.5474 18.5514H26.928C26.9957 18.5514 27.0599 18.5814 27.103 18.6332C27.1461 18.685 27.1635 18.7532 27.1506 18.8191L26.6339 21.4556H28.4797C29.8858 21.4556 30.8392 21.7015 31.3946 22.2072C31.9606 22.7232 32.1373 23.5481 31.9196 24.6595L30.9235 29.7428C30.9028 29.8485 30.8095 29.9248 30.7009 29.9248H28.2825Z" fill="black"/>
<path d="M26.9277 18.3263H24.547C24.3299 18.3263 24.1433 18.4789 24.1019 18.6902L21.961 29.614C21.9351 29.7458 21.97 29.8821 22.0562 29.9858C22.1424 30.0895 22.2707 30.1494 22.4061 30.1494H24.7868C25.0038 30.1494 25.1905 29.9968 25.2319 29.7855L26.387 23.8912H27.9158C28.6234 23.8912 28.7719 24.0411 28.7779 24.0476C28.8208 24.0934 28.8773 24.3055 28.7841 24.7806L27.837 29.614C27.8112 29.7458 27.8461 29.8821 27.9323 29.9858C28.0184 30.0895 28.1468 30.1494 28.2822 30.1494H30.7006C30.9177 30.1494 31.1044 29.9968 31.1458 29.7855L32.1418 24.7022C32.3755 23.5089 32.1756 22.6138 31.5477 22.0415C30.9485 21.4958 29.9449 21.2306 28.4794 21.2306H26.9086L27.3728 18.8618C27.3986 18.73 27.3638 18.5936 27.2776 18.49C27.1915 18.3863 27.0631 18.3263 26.9277 18.3263ZM26.9277 18.776L26.3585 21.6802H28.4794C29.8138 21.6802 30.7343 21.9112 31.2408 22.3726C31.7474 22.8343 31.8992 23.5824 31.6967 24.6164L30.7006 29.6997H28.2822L29.2292 24.8665C29.337 24.3166 29.2974 23.9416 29.1103 23.7416C28.9231 23.5417 28.5249 23.4415 27.9158 23.4415H26.0131L24.7868 29.6997H22.4061L24.547 18.776H26.9277Z" fill="white"/>
<path d="M35.6861 27.7514C36.5979 27.7514 37.2786 27.5846 37.7093 27.2559C38.1354 26.9306 38.4297 26.3669 38.5841 25.5805C38.7279 24.8456 38.6731 24.3324 38.4212 24.0555C38.1637 23.7726 37.607 23.6292 36.7666 23.6292H35.3094L34.5016 27.7514H35.6861ZM30.9201 32.8291C30.8525 32.8291 30.7882 32.7991 30.7452 32.7473C30.7021 32.6955 30.6846 32.6273 30.6975 32.5614L32.8384 21.6376C32.8592 21.532 32.9525 21.4557 33.0611 21.4557H37.6753C39.1255 21.4557 40.2048 21.8462 40.8833 22.6164C41.5654 23.3906 41.776 24.473 41.5093 25.8333C41.4006 26.3874 41.214 26.9021 40.9544 27.3629C40.6945 27.8242 40.351 28.251 39.9333 28.6318C39.4333 29.0958 38.8674 29.4324 38.2528 29.6304C37.648 29.8258 36.8712 29.9249 35.9441 29.9249H34.0756L33.5423 32.6471C33.5215 32.7528 33.4282 32.8291 33.3196 32.8291H30.9201Z" fill="black"/>
<path d="M35.4964 23.8538H36.7667C37.781 23.8538 38.1334 24.0745 38.2531 24.2061C38.4518 24.4245 38.4893 24.8849 38.3615 25.5376C38.2181 26.2684 37.9521 26.7865 37.5712 27.0775C37.181 27.3753 36.5468 27.5263 35.6862 27.5263H34.7768L35.4964 23.8538ZM37.6754 21.2306H33.0611C32.8441 21.2306 32.6575 21.3832 32.6161 21.5945L30.4751 32.5183C30.4493 32.6501 30.4842 32.7864 30.5703 32.8901C30.6564 32.9938 30.7848 33.0537 30.9202 33.0537H33.3198C33.5368 33.0537 33.7235 32.9011 33.7649 32.6898L34.2627 30.1495H35.9442C36.8951 30.1495 37.6956 30.0466 38.3233 29.8439C38.9688 29.6359 39.5628 29.2832 40.0885 28.7957C40.5232 28.3991 40.8811 27.954 41.1524 27.4725C41.4238 26.9908 41.6188 26.4536 41.7319 25.8759C42.0127 24.444 41.7846 23.2975 41.0541 22.4682C40.3307 21.647 39.1939 21.2306 37.6754 21.2306ZM34.2267 27.976H35.6862C36.6537 27.976 37.3743 27.7953 37.8478 27.4338C38.3214 27.0722 38.6407 26.4688 38.8067 25.6233C38.9655 24.8114 38.8932 24.2385 38.5897 23.9048C38.2859 23.571 37.6783 23.4041 36.7667 23.4041H35.1226L34.2267 27.976ZM37.6754 21.6803C39.0635 21.6803 40.0761 22.0415 40.7126 22.7641C41.3491 23.4867 41.5407 24.4953 41.2868 25.7902C41.1823 26.3236 41.0055 26.8113 40.7566 27.2531C40.5074 27.6952 40.1821 28.0995 39.78 28.466C39.3009 28.9107 38.7686 29.2276 38.1829 29.4163C37.5972 29.6056 36.8511 29.6998 35.9442 29.6998H33.8888L33.3198 32.604H30.9202L33.0611 21.6803H37.6754Z" fill="white"/>
</g>
</g>
<defs>
<radialGradient id="paint0_radial_1659_96" cx="0" cy="0" r="1" gradientUnits="userSpaceOnUse" gradientTransform="translate(18.1502 19.4318) scale(27.4386 27.2106)">
<stop stop-color="#AEB2D5"/>
<stop offset="0.3" stop-color="#AEB2D5"/>
<stop offset="0.75" stop-color="#484C89"/>
<stop offset="1" stop-color="#484C89"/>
</radialGradient>
<clipPath id="clip0_1659_96">
<rect width="43" height="23" fill="white" transform="translate(5 15)"/>
</clipPath>
</defs>
</svg>
